<svg width="238" height="238" viewBox="0 0 238 238" fill="none" xmlns="http://www.w3.org/2000/svg" role="img"><g><g transform="translate(46 53)"><path d="M10.0117 19C10.0117 19 0 19 0 19C0 21.4951 0.49144 23.9658 1.44628 26.271C2.40112 28.5762 3.80066 30.6708 5.56498 32.4351C7.32929 34.1994 9.42383 35.5989 11.729 36.5538C14.0342 37.5086 16.5049 38.0001 19 38.0001C21.4951 38.0001 23.9658 37.5086 26.271 36.5538C28.5762 35.5989 30.6708 34.1994 32.4351 32.4351C34.1994 30.6708 35.5989 28.5762 36.5538 26.271C37.5086 23.9658 38 21.4952 38 19C38 19 27.9884 19 27.9884 19C27.9884 20.1804 27.7559 21.3492 27.3042 22.4397C26.8525 23.5303 26.1904 24.5211 25.3558 25.3558C24.5211 26.1904 23.5302 26.8525 22.4397 27.3042C21.3492 27.7559 20.1804 27.9884 19 27.9884C17.8196 27.9884 16.6508 27.7559 15.5603 27.3042C14.4698 26.8525 13.4789 26.1904 12.6443 25.3558C11.8096 24.5211 11.1476 23.5303 10.6958 22.4397C10.2441 21.3492 10.0117 20.1804 10.0117 19Z" fill="#6C63FF" fill-rule="evenodd" transform="matrix(0 -1 1 0 26 128)" /><path d="M10.0117 -19C10.0117 -19 0 -19 0 -19C7.62939e-06 -21.4951 0.491447 -23.9658 1.4463 -26.271C2.40114 -28.5762 3.80067 -30.6708 5.56499 -32.4351C7.3293 -34.1994 9.42384 -35.5989 11.729 -36.5538C14.0342 -37.5086 16.5049 -38 19 -38C21.4952 -38 23.9658 -37.5086 26.271 -36.5538C28.5762 -35.5989 30.6708 -34.1994 32.4351 -32.4351C34.1994 -30.6707 35.5989 -28.5762 36.5538 -26.271C37.5086 -23.9658 38.0001 -21.4951 38.0001 -19C38.0001 -19 27.9884 -19 27.9884 -19C27.9884 -20.1804 27.7559 -21.3492 27.3042 -22.4397C26.8525 -23.5302 26.1904 -24.5211 25.3558 -25.3558C24.5211 -26.1904 23.5303 -26.8525 22.4397 -27.3042C21.3492 -27.7559 20.1804 -27.9884 19 -27.9884C17.8197 -27.9884 16.6508 -27.7559 15.5603 -27.3042C14.4698 -26.8525 13.4789 -26.1904 12.6443 -25.3558C11.8096 -24.5211 11.1476 -23.5302 10.6959 -22.4397C10.2441 -21.3492 10.0117 -20.1804 10.0117 -19Z" fill="#6C63FF" fill-rule="evenodd" transform="matrix(0 -1 -1 -0 121 100)" /><path d="M19.0001 -27.9884C19.0001 -27.9884 19 -38.0001 19 -38.0001C21.4952 -38.0001 23.9659 -37.5087 26.2711 -36.5538C28.5762 -35.599 30.6708 -34.1994 32.4351 -32.4351C34.1994 -30.6708 35.599 -28.5762 36.5538 -26.2711C37.5087 -23.9659 38.0001 -21.4952 38.0001 -19.0001C38.0001 -19.0001 27.9884 -19.0001 27.9884 -19.0001C27.9884 -20.1804 27.756 -21.3492 27.3042 -22.4398C26.8525 -23.5303 26.1905 -24.5211 25.3558 -25.3558C24.5211 -26.1905 23.5303 -26.8525 22.4398 -27.3042C21.3492 -27.756 20.1804 -27.9884 19.0001 -27.9884Z" fill="#6C63FF" fill-rule="evenodd" transform="matrix(1 -0 -0 -1 83 128)" /><path d="M19.0001 -27.9885C19.0001 -27.9885 19.0001 -38.0002 19.0001 -38.0002C21.4952 -38.0002 23.9659 -37.5088 26.2711 -36.5539C28.5763 -35.5991 30.6709 -34.1995 32.4352 -32.4352C34.1995 -30.6709 35.5991 -28.5763 36.5539 -26.2711C37.5088 -23.9659 38.0002 -21.4952 38.0002 -19.0001C38.0002 -19.0001 27.9885 -19.0001 27.9885 -19.0001C27.9885 -20.1805 27.756 -21.3493 27.3043 -22.4398C26.8526 -23.5303 26.1905 -24.5212 25.3559 -25.3559C24.5212 -26.1905 23.5304 -26.8526 22.4398 -27.3043C21.3493 -27.756 20.1805 -27.9885 19.0001 -27.9885Z" fill="#6C63FF" fill-rule="evenodd" transform="matrix(-0 1 1 0 12 33)" /><path d="M19.0001 -27.9886C19.0001 -27.9886 19.0001 -38.0003 19.0001 -38.0003C21.4953 -38.0003 23.966 -37.5088 26.2712 -36.554C28.5764 -35.5991 30.6709 -34.1996 32.4353 -32.4353C34.1996 -30.6709 35.5991 -28.5764 36.554 -26.2712C37.5088 -23.966 38.0003 -21.4953 38.0003 -19.0001C38.0003 -19.0001 27.9886 -19.0001 27.9886 -19.0001C27.9886 -20.1805 27.7561 -21.3493 27.3044 -22.4399C26.8526 -23.5304 26.1906 -24.5213 25.3559 -25.3559C24.5213 -26.1906 23.5304 -26.8526 22.4398 -27.3044C21.3493 -27.7561 20.1805 -27.9886 19.0001 -27.9886Z" fill="#6C63FF" fill-rule="evenodd" transform="matrix(-0 -1 -1 0 78 71)" /><path d="M19.0002 -27.9886C19.0002 -27.9886 19.0002 -38.0003 19.0002 -38.0003C21.4953 -38.0003 23.966 -37.5088 26.2712 -36.554C28.5764 -35.5991 30.671 -34.1996 32.4353 -32.4353C34.1996 -30.6709 35.5992 -28.5764 36.554 -26.2712C37.5089 -23.966 38.0003 -21.4953 38.0003 -19.0001C38.0003 -19.0001 27.9886 -19.0001 27.9886 -19.0001C27.9886 -20.1805 27.7561 -21.3493 27.3044 -22.4399C26.8527 -23.5304 26.1906 -24.5213 25.3559 -25.3559C24.5213 -26.1906 23.5304 -26.8527 22.4399 -27.3044C21.3493 -27.7561 20.1805 -27.9886 19.0002 -27.9886Z" fill="#6C63FF" fill-rule="evenodd" transform="matrix(-0 1 1 0 71 5)" /><rect width="19" height="10" fill="#6C63FF" fill-rule="evenodd" transform="matrix(0 1 -1 0 121 109)" /><rect width="40" height="10" fill="#6C63FF" fill-rule="evenodd" transform="translate(5 90)" /><rect width="40" height="10" fill="#6C63FF" fill-rule="evenodd" transform="translate(102 62)" /><rect width="31" height="10" fill="#6C63FF" fill-rule="evenodd" transform="translate(0 61)" /><rect width="31" height="10" fill="#6C63FF" fill-rule="evenodd" transform="translate(59 33)" /><rect width="24" height="10" fill="#6C63FF" fill-rule="evenodd" transform="matrix(0 1 -1 0 109 0)" /><rect width="19" height="10" fill="#6C63FF" fill-rule="evenodd" transform="translate(26 118)" /></g><g transform="translate(10 17)"><line x1="36" y1="1" x2="0" y2="1" fill="none" stroke-width="10" stroke="#6C63FF" stroke-linecap="round" transform="translate(5.5 9)" /></g><g><path d="M21.1378 72.3942C21.1378 72.3942 11.5616 67.8337 11.5616 67.8337C-0.47232 93.1024 -3.21481 121.804 3.81612 148.894C10.8471 175.985 27.2014 199.73 50.005 215.957C72.8086 232.184 100.602 239.855 128.501 237.62C156.399 235.386 182.617 223.389 202.548 203.74C222.478 184.09 234.844 158.044 237.474 130.18C240.103 102.316 232.827 74.4167 216.925 51.3855C201.022 28.3543 177.511 11.6652 150.523 4.25118C123.535 -3.16282 94.7974 -0.82718 69.3608 10.8476C69.3608 10.8476 73.7852 20.4874 73.7852 20.4874C96.9547 9.85322 123.131 7.72577 147.713 14.4789C172.296 21.2321 193.712 36.4337 208.197 57.4121C222.682 78.3905 229.309 103.803 226.914 129.184C224.519 154.564 213.255 178.288 195.101 196.187C176.947 214.085 153.066 225.012 127.654 227.047C102.242 229.083 76.9258 222.096 56.1547 207.315C35.3836 192.534 20.4869 170.906 14.0827 146.23C7.67843 121.554 10.1765 95.4107 21.1378 72.3942Z" fill="#6C63FF" fill-rule="evenodd" /><path d="M143.154 78C143.154 78 156 78 156 78C156 121.078 121.078 156 78 156C34.9218 156 0 121.078 0 78C0 34.9218 34.9218 0 78 0C121.078 0 156 34.9218 156 78C156 78 143.154 78 143.154 78C143.154 42.0163 113.984 12.8458 78 12.8458C42.0163 12.8458 12.8458 42.0163 12.8458 78C12.8458 113.984 42.0163 143.154 78 143.154C113.984 143.154 143.154 113.984 143.154 78Z" fill="#000000" fill-rule="evenodd" transform="translate(41 41)" /></g></g></svg>
